<svg width="28" height="26" viewBox="0 0 28 26" fill="none" xmlns="http://www.w3.org/2000/svg">
<g filter="url(#filter0_d_69_5699)">
<path d="M8 2.00002C7.99974 2.53046 7.78877 3.03906 7.41351 3.41394C7.03825 3.78883 6.52943 3.99929 5.999 3.99902C5.46857 3.99876 4.95996 3.78779 4.58508 3.41253C4.21019 3.03727 3.99974 2.52846 4 1.99802C4.00027 1.46759 4.21123 0.958988 4.58649 0.584103C4.96175 0.209218 5.47057 -0.00124153 6.001 -0.000976312C6.53143 -0.000711096 7.04004 0.210257 7.41492 0.585517C7.78981 0.960777 8.00027 1.46959 8 2.00002V2.00002ZM8.06 5.48002H4.06V18H8.06V5.48002ZM14.38 5.48002H10.4V18H14.34V11.43C14.34 7.77002 19.11 7.43002 19.11 11.43V18H23.06V10.07C23.06 3.90002 16 4.13002 14.34 7.16002L14.38 5.48002V5.48002Z" fill="#FF0404"/>
</g>
<defs>
<filter id="filter0_d_69_5699" x="0" y="-0.000976562" width="27.06" height="26.001" filterUnits="userSpaceOnUse" color-interpolation-filters="sRGB">
<feFlood flood-opacity="0" result="BackgroundImageFix"/>
<feColorMatrix in="SourceAlpha" type="matrix" values="0 0 0 0 0 0 0 0 0 0 0 0 0 0 0 0 0 0 127 0" result="hardAlpha"/>
<feOffset dy="4"/>
<feGaussianBlur stdDeviation="2"/>
<feComposite in2="hardAlpha" operator="out"/>
<feColorMatrix type="matrix" values="0 0 0 0 0 0 0 0 0 0 0 0 0 0 0 0 0 0 0.25 0"/>
<feBlend mode="normal" in2="BackgroundImageFix" result="effect1_dropShadow_69_5699"/>
<feBlend mode="normal" in="SourceGraphic" in2="effect1_dropShadow_69_5699" result="shape"/>
</filter>
</defs>
</svg>
